<svg xmlns="http://www.w3.org/2000/svg" xmlns:xlink="http://www.w3.org/1999/xlink" version="1.1" id="Capa_1" x="0px" y="0px" width="100%" height="100%" viewBox="0 0 612 612" style="enable-background:new 0 0 612 612;" xml:space="preserve" ><rect id="svgEditorBackground" x="0" y="0" width="612" height="612" style="fill: none; stroke: none;"/>
<g>
	<g>
		<path d="M556.1409912109375,306c0,-153.58099365234375,-124.4940185546875,-278.07598876953125,-278.06500244140625,-278.07598876953125c-153.58099365234375,-0.000011444091796875,-278.07598876953125,124.4949951171875,-278.07598876953125,278.07598876953125c0,153.57098388671875,124.49500274658203,278.07598876953125,278.07598876953125,278.07598876953125c153.57000732421875,-0.010986328125,278.06500244140625,-124.50497436523438,278.06500244140625,-278.07598876953125ZM278.07598876953125,111.55500030517578c26.235992431640625,0,50.9580078125,6.519996643066406,72.62100219726562,18.01299285888672l-41.72601318359375,64.99700927734375c-9.864013671875,-2.608001708984375,-20.222015380859375,-3.996002197265625,-30.906005859375,-3.996002197265625c-10.683990478515625,0,-21.0419921875,1.3979949951171875,-30.904998779296875,3.996002197265625l-41.714996337890625,-64.99700927734375c21.672027587890625,-11.492996215820312,46.38401794433594,-18.01299285888672,72.63101196289062,-18.01299285888672ZM88.40499877929688,249.3520050048828c8.108001708984375,-24.953994750976562,21.936004638671875,-46.447998046875,39.57099914550781,-63.503997802734375l48.845001220703125,59.66600036621094c-11.156997680664062,17.139984130859375,-18.076004028320312,37.277984619140625,-19.285995483398438,58.95001220703125l-74.44000244140625,19.527008056640625c-4.237998962402344,-24.164031982421875,-2.798004150390625,-49.685028076171875,5.30999755859375,-74.63902282714844ZM160.85800170898438,472.31500244140625c-21.231002807617188,-15.425994873046875,-37.39399719238281,-35.217010498046875,-48.1719970703125,-57.25799560546875l71.49600219726562,-27.87701416015625c13.186996459960938,16.29998779296875,30.537002563476562,29.097991943359375,50.43299865722656,36.78399658203125l-4.4170074462890625,76.48001098632812c-24.291000366210938,-3.447998046875,-48.11900329589844,-12.701995849609375,-69.33999633789062,-28.128997802734375ZM395.29400634765625,472.31500244140625c-21.230987548828125,15.416015625,-45.05999755859375,24.680999755859375,-69.34100341796875,28.118988037109375l-4.415985107421875,-76.48001098632812c19.89599609375,-7.675994873046875,37.246002197265625,-20.4739990234375,50.433013916015625,-36.782989501953125l71.49600219726562,27.87701416015625c-10.778045654296875,22.04998779296875,-26.942047119140625,41.84100341796875,-48.172027587890625,57.266998291015625ZM398.6059875488281,304.4639892578125c-1.209991455078125,-21.6719970703125,-8.128997802734375,-41.80999755859375,-19.2860107421875,-58.94999694824219l48.845001220703125,-59.66600036621094c17.625,17.0570068359375,31.4630126953125,38.55000305175781,39.57098388671875,63.503997802734375c8.10699462890625,24.954010009765625,9.548004150390625,50.475006103515625,5.30999755859375,74.6300048828125l-74.43997192382812,-19.51800537109375Z" fill="#FF7F50"/>
		<path d="M370.3819885253906,582.0980224609375c33.6820068359375,3.52301025390625,69.00399780273438,3.333984375,100.656005859375,-9.17999267578125c55.712005615234375,-20.59002685546875,73.65097045898438,-65.96499633789062,140.89797973632812,-58.0780029296875l0.06402587890625,-52.72503662109375c-104.94601440429688,9.727020263671875,-133.20199584960938,110.42498779296875,-241.61801147460938,119.9830322265625Z" fill="#FF7F50"/>
	</g>
</g>
<g>
</g>
<g>
</g>
<g>
</g>
<g>
</g>
<g>
</g>
<g>
</g>
<g>
</g>
<g>
</g>
<g>
</g>
<g>
</g>
<g>
</g>
<g>
</g>
<g>
</g>
<g>
</g>
<g>
</g>
</svg>