<svg xmlns="http://www.w3.org/2000/svg" xmlns:xlink="http://www.w3.org/1999/xlink" version="1.1" x="0px" y="0px" viewBox="0 0 90 112.5" enable-background="new 0 0 90 90" xml:space="preserve"><g><path d="M63.461,46.329L49.797,24.545h0.006V7.878h-2v16.841l-0.021-0.021L35.887,38.983l-8.459,1.893v15.85v1v15.539l12.694,0.982   l34.884-1.742V50.433L63.461,46.329z M31.512,57.726h-2.574v-1h2.574V57.726z M38.289,38.446l10.535-12.627l12.357,19.701   l-21.06-7.484L38.289,38.446z M45.907,71.956l-3.785,0.189V40.868l3.785,1.346V71.956z M50.781,71.712l-3.374,0.17V42.747   l3.374,1.199V71.712z M55,71.503l-2.719,0.135V44.479L55,45.446V71.503z M58.824,71.312L56.5,71.427V45.979l2.324,0.824V71.312z    M62.324,71.136l-2,0.1V47.337l2,0.711V71.136z M65.531,70.976l-1.707,0.086v-22.48l1.707,0.607V70.976z M68.313,70.837   l-1.281,0.064v-21.18l1.281,0.455V70.837z M71,70.702l-1.188,0.061V50.71L71,51.132V70.702z M73.006,70.603L72.5,70.628V51.665   l0.506,0.18V70.603z"/><path d="M15.869,72.41l10.559,0.816V57.764v-1V41.137L15.869,43.5V72.41z M23.428,56.764h1.958v1h-1.958V56.764z"/></g><text x="0" y="105" fill="#000000" font-size="5px" font-weight="bold" font-family="'Helvetica Neue', Helvetica, Arial-Unicode, Arial, Sans-serif">Created by Zahi Asa</text><text x="0" y="110" fill="#000000" font-size="5px" font-weight="bold" font-family="'Helvetica Neue', Helvetica, Arial-Unicode, Arial, Sans-serif">from the Noun Project</text></svg>