<?xml version="1.0"?>
<svg width="63" height="37" xmlns="http://www.w3.org/2000/svg">

 <g>
  <title>background</title>
  <rect fill="none" id="canvas_background" height="39" width="65" y="-1" x="-1"/>
 </g>
 <g>
  <title>Layer 1</title>
  <g id="svg_1">
   <path fill="#4b46e2" d="m48.211277,8.454693l-23.28281,-8.110222l-4.29118,0.764233l-8.459003,1.892998l0,15.850002l0,1l0,15.539001l12.694004,0.981998l34.883995,-1.742008l0,-22.072002l-11.545006,-4.104zm-31.948992,11.397011l-2.574001,0l0,-1l2.574001,0l0,1zm5.65204,-18.780022l24.01696,6.57402l-20.93502,-7.359001l-3.08194,0.784981zm8.742962,33.010021l-3.785,0.188995l0,-31.276997l3.785,1.346001l0,29.742001zm4.873989,-0.244003l-3.373989,0.170006l0,-29.135002l3.373989,1.198997l0,27.765999zm4.219009,-0.209l-2.719009,0.135002l0,-27.159l2.719009,0.966999l0,26.056999zm3.824001,-0.191002l-2.324001,0.115005l0,-25.448002l2.324001,0.824001l0,24.508995zm3.5,-0.175995l-2,0.099998l0,-23.898998l2,0.710999l0,23.088001zm3.206997,-0.160004l-1.706997,0.085999l0,-22.479996l1.706997,0.606998l0,21.786999zm2.782005,-0.138996l-1.281006,0.063999l0,-21.18l1.281006,0.45499l0,20.661011zm2.686996,-0.134998l-1.188004,0.060997l0,-20.053001l1.188004,0.422001l0,19.570004zm2.005997,-0.09901l-0.505997,0.025005l0,-18.962997l0.505997,0.18l0,18.757992z" id="svg_2"/>
   <path fill="#4b46e2" id="svg_3" d="m0.619283,34.535702l10.558999,0.815998l0,-15.462002l0,-1l0,-15.626999l-10.558999,2.362999l0,28.910004zm7.558999,-15.646004l1.958,0l0,1l-1.958,0l0,-1z"/>
  </g>
 </g>
</svg>