<?xml version="1.0"?>
<svg width="63" height="37" xmlns="http://www.w3.org/2000/svg">

 <g>
  <title>background</title>
  <rect fill="none" id="canvas_background" height="39" width="65" y="-1" x="-1"/>
 </g>
 <g>
  <title>Layer 1</title>
  <path id="svg_10" d="m3.563018,4.875253l20.686534,-4.250264l-1.249977,35.499344l-21.374605,-1.499973l1.938048,-29.749106z" stroke-opacity="null" stroke-width="null" stroke="null" fill="#6379e8"/>
  <path stroke="null" transform="rotate(17.971166610717773 39.18390655517576,17.425630569458004) " id="svg_7" d="m51.182343,27.63884l1.199837,-2.723576l4.799633,-0.680882l-5.99947,3.404457l-29.996346,0l0,-20.42642l35.995815,0l0,17.021963" stroke-opacity="null" stroke-width="null" fill="#6379e8"/>
  <rect id="svg_8" height="21.374604" width="35.374345" y="13.250097" x="23.437649" stroke-opacity="null" stroke-width="null" stroke="null" fill="#6379e8"/>
  <g id="svg_1">
   <path fill="#4b46e2" d="m48.336273,8.454693l-23.282808,-8.110222l-4.29118,0.764233l-8.459003,1.892997l0,15.850003l0,1l0,15.539001l12.694004,0.981998l34.883993,-1.742008l0,-22.072002l-11.545006,-4.104zm-31.94899,11.397011l-2.574001,0l0,-1l2.574001,0l0,1zm5.65204,-18.780022l24.016958,6.57402l-20.935019,-7.359001l-3.08194,0.784981zm8.742962,33.010021l-3.785,0.188995l0,-31.276997l3.785,1.346001l0,29.742zm4.873987,-0.244003l-3.373989,0.170006l0,-29.135002l3.373989,1.198997l0,27.765999zm4.219009,-0.209l-2.719009,0.135002l0,-27.159l2.719009,0.966999l0,26.056999zm3.824001,-0.191002l-2.324001,0.115005l0,-25.448002l2.324001,0.824001l0,24.508995zm3.5,-0.175995l-2,0.099998l0,-23.898998l2,0.710999l0,23.088001zm3.206997,-0.160004l-1.706997,0.085999l0,-22.479996l1.706997,0.606998l0,21.786999zm2.782005,-0.138996l-1.281006,0.063999l0,-21.18l1.281006,0.45499l0,20.661011zm2.686996,-0.134998l-1.188004,0.060997l0,-20.053001l1.188004,0.422001l0,19.570004zm2.005997,-0.09901l-0.505997,0.025005l0,-18.962997l0.505997,0.18l0,18.757992z" id="svg_2"/>
   <path fill="#4b46e2" id="svg_3" d="m0.744281,34.535702l10.558999,0.815998l0,-15.462002l0,-1l0,-15.626999l-10.558999,2.362999l0,28.910004zm7.558999,-15.646004l1.958,0l0,1l-1.958,0l0,-1z"/>
  </g>
 </g>
</svg>