<svg xmlns="http://www.w3.org/2000/svg" xmlns:xlink="http://www.w3.org/1999/xlink" version="1.1" id="Capa_1" x="0px" y="0px" width="100px" height="100px" viewBox="0 0 5000.459 5000.46" style="enable-background:new 0 0 5000.459 5000.46;" xml:space="preserve" ><rect id="svgEditorBackground" x="0" y="0" width="5000.4590148925781" height="5000.4599914550781" style="fill: none; stroke: none;"/>
<g>
	<g>
		<path d="M163.8159942626953,222.91000366210938c38.7449951171875,0,70.26899719238281,-31.514007568359375,70.26899719238281,-70.25900268554688c0,-38.7449951171875,-31.522994995117188,-70.27400207519531,-70.26899719238281,-70.27400207519531c-38.74299621582031,0,-70.26399993896484,31.524002075195312,-70.26399993896484,70.27400207519531c0.00000762939453125,38.7449951171875,31.516006469726562,70.25900268554688,70.26399993896484,70.25900268554688Z" fill="#ADFF2F"/>
		<path d="M163.8159942626953,241.77099609375c49.22599792480469,0,89.11799621582031,-39.90299987792969,89.11799621582031,-89.11900329589844c0,-49.227996826171875,-39.89300537109375,-89.12300109863281,-89.11799621582031,-89.12300109863281c-49.22100067138672,0,-89.11900329589844,39.89500427246094,-89.11900329589844,89.12300109863281c0.00000762939453125,49.21501159667969,39.89801025390625,89.11900329589844,89.11900329589844,89.11900329589844ZM163.8159942626953,77.18299865722656c41.608001708984375,0,75.46900939941406,33.86199951171875,75.46900939941406,75.46900939941406c0,41.6090087890625,-33.86000061035156,75.4639892578125,-75.468994140625,75.4639892578125c-41.60900115966797,0,-75.46399688720703,-33.85400390625,-75.46399688720703,-75.4639892578125c-0.0000152587890625,-41.60700988769531,33.85498809814453,-75.46900939941406,75.46398162841797,-75.46900939941406Z" fill="#ADFF2F"/>
		<path d="M302.4590148925781,250.06199645996094l-5.20001220703125,-200.0260009765625c0,-4.306999206542969,-3.493011474609375,-7.799999237060547,-7.79998779296875,-7.799999237060547c-1.152008056640625,0,-2.2340087890625,0.26399993896484375,-3.2139892578125,0.7179985046386719v-0.07400131225585938c0,0,-0.2030029296875,0.13000106811523438,-0.493011474609375,0.3279991149902344c-0.746002197265625,0.4119987487792969,-1.415985107421875,0.9189987182617188,-1.9949951171875,1.53900146484375c-5.7080078125,4.685001373291016,-23.907012939453125,23.779998779296875,-25.430999755859375,49.59199523925781c-2.311004638671875,39.37200927734375,16.81298828125,55.31700134277344,23.3280029296875,69.92098999023438l-5.199005126953125,85.79800415039062c0,4.305999755859375,8.6929931640625,7.79998779296875,12.998992919921875,7.79998779296875c4.311981201171875,0.0040283203125,13.0050048828125,-3.4889678955078125,13.0050048828125,-7.7959747314453125Z" fill="#ADFF2F"/>
		<path d="M 13.614 128.206 l 13.461 6.724 c 1.534 0.768997 3.225 1.33 4.992 1.74699 l -5.2 117.007 c 0 3.61499 8.696 6.54001 13 6.54001 c 4.306 0 13 -2.92499 13 -6.53999 l -5.2 -117.606 c 1.831 -0.576004 3.595 -1.27901 5.139 -2.224 l 9.973 -6.073 c 7.196 -4.39 12.619 -14.045 12.619 -22.475 v -52.426 c 0 -4.307 -3.494 -7.8 -7.8 -7.8 c -4.304 0 -7.8 3.493 -7.8 7.8 v 47.225 h -4.332 v -47.225 c 0 -4.307 -3.494 -7.8 -7.8 -7.8 c -4.304 0 -7.8 3.493 -7.8 7.8 v 47.225 h -4.347 v -47.225 c 0 -4.307 -3.494 -7.8 -7.8 -7.8 c -4.304 0 -7.8 3.493 -7.8 7.8 v 47.225 h -4.319 v -45.54 c 0 -4.306 -3.494 -7.8 -7.8 -7.8 c -4.304 0 -7.8 3.494 -7.8 7.8 v 51.612 c 0 8.675 5.855 18.15 13.614 22.029 Z" fill="#ADFF2F" />
	</g>
</g>
<g>
</g>
<g>
</g>
<g>
</g>
<g>
</g>
<g>
</g>
<g>
</g>
<g>
</g>
<g>
</g>
<g>
</g>
<g>
</g>
<g>
</g>
<g>
</g>
<g>
</g>
<g>
</g>
<g>
</g>
</svg>